<svg width="321" height="120" viewBox="0 0 321 120" fill="none" xmlns="http://www.w3.org/2000/svg">
<rect width="321" height="120" rx="60" fill="black"/>
<g clip-path="url(#clip0_238_16)">
<path fill-rule="evenodd" clip-rule="evenodd" d="M60.854 12C33.839 12 12 34 12 61.217C12 82.973 25.993 101.389 45.405 107.907C47.832 108.397 48.721 106.848 48.721 105.545C48.721 104.404 48.641 100.493 48.641 96.418C35.051 99.352 32.221 90.551 32.221 90.551C30.037 84.847 26.801 83.381 26.801 83.381C22.353 80.366 27.125 80.366 27.125 80.366C32.059 80.692 34.648 85.418 34.648 85.418C39.015 92.914 46.052 90.796 48.883 89.492C49.287 86.314 50.582 84.114 51.957 82.892C41.118 81.751 29.714 77.514 29.714 58.609C29.714 53.231 31.654 48.831 34.728 45.409C34.243 44.187 32.544 39.134 35.214 32.371C35.214 32.371 39.339 31.067 48.64 37.423C52.6221 36.3457 56.7288 35.7976 60.854 35.793C64.979 35.793 69.184 36.364 73.067 37.423C82.369 31.067 86.494 32.371 86.494 32.371C89.164 39.134 87.464 44.187 86.979 45.409C90.134 48.831 91.994 53.231 91.994 58.609C91.994 77.514 80.59 81.669 69.67 82.892C71.45 84.44 72.986 87.373 72.986 92.018C72.986 98.618 72.906 103.915 72.906 105.544C72.906 106.848 73.796 108.397 76.222 107.908C95.634 101.388 109.627 82.973 109.627 61.217C109.707 34 87.788 12 60.854 12Z" fill="white"/>
</g>
<path d="M182.44 72.84C182.44 76.84 181.253 80.0267 178.88 82.4C176.213 85.2267 172.707 86.64 168.36 86.64C164.2 86.64 160.68 85.2 157.8 82.32C154.92 79.44 153.48 75.8933 153.48 71.68C153.48 67.4667 154.92 63.92 157.8 61.04C160.68 58.16 164.2 56.72 168.36 56.72C170.467 56.72 172.453 57.0933 174.32 57.84C176.187 58.5867 177.72 59.64 178.92 61L176.28 63.64C175.4 62.5733 174.253 61.7467 172.84 61.16C171.453 60.5467 169.96 60.24 168.36 60.24C165.24 60.24 162.6 61.32 160.44 63.48C158.307 65.6667 157.24 68.4 157.24 71.68C157.24 74.96 158.307 77.6933 160.44 79.88C162.6 82.04 165.24 83.12 168.36 83.12C171.213 83.12 173.587 82.32 175.48 80.72C177.373 79.12 178.467 76.92 178.76 74.12H168.36V70.68H182.24C182.373 71.4267 182.44 72.1467 182.44 72.84ZM191.031 59.64C191.031 60.36 190.778 60.9733 190.271 61.48C189.765 61.9867 189.151 62.24 188.431 62.24C187.711 62.24 187.098 61.9867 186.591 61.48C186.085 60.9733 185.831 60.36 185.831 59.64C185.831 58.92 186.085 58.3067 186.591 57.8C187.098 57.2933 187.711 57.04 188.431 57.04C189.151 57.04 189.765 57.2933 190.271 57.8C190.778 58.3067 191.031 58.92 191.031 59.64ZM190.271 66.4V86H186.591V66.4H190.271ZM202.625 86.32C201.025 86.32 199.692 85.8267 198.625 84.84C197.585 83.8533 197.052 82.48 197.025 80.72V69.76H193.585V66.4H197.025V60.4H200.705V66.4H205.505V69.76H200.705V79.52C200.705 80.8267 200.958 81.72 201.465 82.2C201.972 82.6533 202.545 82.88 203.185 82.88C203.478 82.88 203.758 82.8533 204.025 82.8C204.318 82.72 204.585 82.6267 204.825 82.52L205.985 85.8C205.025 86.1467 203.905 86.32 202.625 86.32ZM213.326 86H209.646V57.36H213.326V69.64H227.646V57.36H231.326V86H227.646V73.08H213.326V86ZM253.237 86H249.717V83.28H249.557C248.997 84.24 248.13 85.04 246.957 85.68C245.81 86.32 244.61 86.64 243.357 86.64C240.957 86.64 239.104 85.96 237.797 84.6C236.517 83.2133 235.877 81.2533 235.877 78.72V66.4H239.557V78.48C239.637 81.68 241.25 83.28 244.397 83.28C245.864 83.28 247.09 82.6933 248.077 81.52C249.064 80.32 249.557 78.8933 249.557 77.24V66.4H253.237V86ZM268.077 86.64C266.637 86.64 265.317 86.3333 264.117 85.72C262.943 85.1067 262.037 84.2933 261.397 83.28H261.237V86H257.717V57.36H261.397V66.4L261.237 69.12H261.397C262.037 68.1067 262.943 67.2933 264.117 66.68C265.317 66.0667 266.637 65.76 268.077 65.76C270.663 65.76 272.85 66.7733 274.637 68.8C276.477 70.8533 277.397 73.32 277.397 76.2C277.397 79.1067 276.477 81.5733 274.637 83.6C272.85 85.6267 270.663 86.64 268.077 86.64ZM267.477 83.28C269.237 83.28 270.717 82.6133 271.917 81.28C273.117 79.9733 273.717 78.28 273.717 76.2C273.717 74.1467 273.117 72.4533 271.917 71.12C270.717 69.7867 269.237 69.12 267.477 69.12C265.69 69.12 264.197 69.7867 262.997 71.12C261.823 72.4533 261.237 74.1467 261.237 76.2C261.237 78.28 261.823 79.9867 262.997 81.32C264.197 82.6267 265.69 83.28 267.477 83.28Z" fill="white"/>
<path d="M170.264 39.104C170.264 41.504 169.552 43.416 168.128 44.84C166.528 46.536 164.424 47.384 161.816 47.384C159.32 47.384 157.208 46.52 155.48 44.792C153.752 43.064 152.888 40.936 152.888 38.408C152.888 35.88 153.752 33.752 155.48 32.024C157.208 30.296 159.32 29.432 161.816 29.432C163.08 29.432 164.272 29.656 165.392 30.104C166.512 30.552 167.432 31.184 168.152 32L166.568 33.584C166.04 32.944 165.352 32.448 164.504 32.096C163.672 31.728 162.776 31.544 161.816 31.544C159.944 31.544 158.36 32.192 157.064 33.488C155.784 34.8 155.144 36.44 155.144 38.408C155.144 40.376 155.784 42.016 157.064 43.328C158.36 44.624 159.944 45.272 161.816 45.272C163.528 45.272 164.952 44.792 166.088 43.832C167.224 42.872 167.88 41.552 168.056 39.872H161.816V37.808H170.144C170.224 38.256 170.264 38.688 170.264 39.104ZM177.726 47.384C175.998 47.384 174.574 46.792 173.454 45.608C172.334 44.424 171.774 42.928 171.774 41.12C171.774 39.328 172.318 37.84 173.406 36.656C174.494 35.456 175.886 34.856 177.582 34.856C179.326 34.856 180.71 35.424 181.734 36.56C182.774 37.68 183.294 39.256 183.294 41.288L183.27 41.528H174.03C174.062 42.68 174.446 43.608 175.182 44.312C175.918 45.016 176.798 45.368 177.822 45.368C179.23 45.368 180.334 44.664 181.134 43.256L183.102 44.216C182.574 45.208 181.838 45.984 180.894 46.544C179.966 47.104 178.91 47.384 177.726 47.384ZM174.198 39.704H180.942C180.878 38.888 180.542 38.216 179.934 37.688C179.342 37.144 178.542 36.872 177.534 36.872C176.702 36.872 175.982 37.128 175.374 37.64C174.782 38.152 174.39 38.84 174.198 39.704ZM189.617 47.192C188.657 47.192 187.857 46.896 187.217 46.304C186.593 45.712 186.273 44.888 186.257 43.832V37.256H184.193V35.24H186.257V31.64H188.465V35.24H191.345V37.256H188.465V43.112C188.465 43.896 188.617 44.432 188.921 44.72C189.225 44.992 189.569 45.128 189.953 45.128C190.129 45.128 190.297 45.112 190.457 45.08C190.633 45.032 190.793 44.976 190.937 44.912L191.633 46.88C191.057 47.088 190.385 47.192 189.617 47.192ZM201.575 31.184C201.575 31.616 201.423 31.984 201.119 32.288C200.815 32.592 200.447 32.744 200.015 32.744C199.583 32.744 199.215 32.592 198.911 32.288C198.607 31.984 198.455 31.616 198.455 31.184C198.455 30.752 198.607 30.384 198.911 30.08C199.215 29.776 199.583 29.624 200.015 29.624C200.447 29.624 200.815 29.776 201.119 30.08C201.423 30.384 201.575 30.752 201.575 31.184ZM201.119 35.24V47H198.911V35.24H201.119ZM208.531 47.192C207.571 47.192 206.771 46.896 206.131 46.304C205.507 45.712 205.187 44.888 205.171 43.832V37.256H203.107V35.24H205.171V31.64H207.379V35.24H210.259V37.256H207.379V43.112C207.379 43.896 207.531 44.432 207.835 44.72C208.139 44.992 208.483 45.128 208.867 45.128C209.043 45.128 209.211 45.112 209.371 45.08C209.547 45.032 209.707 44.976 209.851 44.912L210.547 46.88C209.971 47.088 209.299 47.192 208.531 47.192ZM216.961 41.12C216.961 39.312 217.529 37.816 218.665 36.632C219.817 35.448 221.265 34.856 223.009 34.856C224.753 34.856 226.193 35.448 227.329 36.632C228.481 37.816 229.057 39.312 229.057 41.12C229.057 42.944 228.481 44.44 227.329 45.608C226.193 46.792 224.753 47.384 223.009 47.384C221.265 47.384 219.817 46.792 218.665 45.608C217.529 44.424 216.961 42.928 216.961 41.12ZM219.169 41.12C219.169 42.384 219.537 43.408 220.273 44.192C221.009 44.976 221.921 45.368 223.009 45.368C224.097 45.368 225.009 44.976 225.745 44.192C226.481 43.408 226.849 42.384 226.849 41.12C226.849 39.872 226.481 38.856 225.745 38.072C224.993 37.272 224.081 36.872 223.009 36.872C221.937 36.872 221.025 37.272 220.273 38.072C219.537 38.856 219.169 39.872 219.169 41.12ZM230.828 35.24H232.94V36.872H233.036C233.372 36.296 233.884 35.816 234.572 35.432C235.276 35.048 236.004 34.856 236.756 34.856C238.196 34.856 239.3 35.272 240.068 36.104C240.852 36.92 241.244 38.088 241.244 39.608V47H239.036V39.752C238.988 37.832 238.02 36.872 236.132 36.872C235.252 36.872 234.516 37.232 233.924 37.952C233.332 38.656 233.036 39.504 233.036 40.496V47H230.828V35.24Z" fill="white"/>
<defs>
<clipPath id="clip0_238_16">
<rect width="98" height="96" fill="white" transform="translate(12 12)"/>
</clipPath>
</defs>
</svg>
