<svg width="280" height="280" viewBox="0 0 280 280" fill="none" xmlns="http://www.w3.org/2000/svg">
<path d="M99.0303 182.945C99.0303 174.493 105.881 167.643 114.332 167.643V167.643C122.783 167.643 129.634 174.493 129.634 182.944V223.421C129.634 231.872 122.783 238.722 114.332 238.722V238.722C105.881 238.722 99.0303 231.872 99.0303 223.421V182.945Z" fill="#F06200"/>
<path d="M150.366 182.451C150.366 174.272 156.996 167.643 165.174 167.643V167.643C173.352 167.643 179.982 174.272 179.982 182.451V223.914C179.982 232.093 173.352 238.722 165.174 238.722V238.722C156.996 238.722 150.366 232.093 150.366 223.914V182.451Z" fill="#DF5B00"/>
<path d="M124.698 56.5802C124.698 48.1292 131.549 41.2783 140 41.2783V41.2783C148.451 41.2783 155.302 48.1292 155.302 56.5802V98.0435C155.302 106.495 148.451 113.345 140 113.345V113.345C131.549 113.345 124.698 106.495 124.698 98.0435V56.5802Z" fill="#00FF00"/>
<circle cx="140" cy="138.52" r="64.663" fill="url(#paint0_linear_19_2)"/>
<circle cx="120.255" cy="112.852" r="10.3658" fill="black"/>
<circle cx="159.744" cy="112.852" r="10.3658" fill="black"/>
<mask id="path-7-inside-1_19_2" fill="white">
<path d="M167.763 141.904C167.763 157.333 155.255 165.65 139.825 165.65C124.396 165.65 111.888 157.333 111.888 141.904C111.888 141.904 112.781 138.683 115.943 138.615C119.105 138.547 119.687 141.904 119.687 141.904C119.687 141.904 124.814 157.118 139.825 157.417C156.43 157.417 159.591 141.904 159.591 141.904C159.591 141.904 160.759 138.615 163.863 138.615C167.035 138.557 167.763 141.904 167.763 141.904Z"/>
</mask>
<path d="M167.763 141.904H217.763V136.532L216.622 131.284L167.763 141.904ZM111.888 141.904L63.704 128.551L61.8882 135.104V141.904H111.888ZM115.943 138.615L117.016 188.604L117.017 188.604L115.943 138.615ZM119.687 141.904L70.4213 150.441L71.0775 154.228L72.3049 157.871L119.687 141.904ZM139.825 157.417L138.83 207.407L139.327 207.417H139.825V157.417ZM159.591 141.904L112.474 125.17L111.299 128.479L110.598 131.919L159.591 141.904ZM163.863 138.615V188.615H164.322L164.781 188.607L163.863 138.615ZM117.763 141.904C117.763 138.87 118.414 134.82 120.479 130.512C122.541 126.211 125.46 122.806 128.519 120.381C134.324 115.779 139.149 115.65 139.825 115.65V215.65C155.931 215.65 174.725 211.362 190.642 198.744C207.851 185.101 217.763 164.641 217.763 141.904H117.763ZM139.825 115.65C140.502 115.65 145.327 115.779 151.132 120.381C154.191 122.806 157.11 126.211 159.172 130.512C161.237 134.82 161.888 138.87 161.888 141.904H61.8882C61.8882 164.641 71.8001 185.101 89.0093 198.744C104.926 211.362 123.719 215.65 139.825 215.65V115.65ZM111.888 141.904C160.072 155.256 160.066 155.277 160.061 155.299C160.059 155.306 160.053 155.327 160.049 155.341C160.041 155.37 160.033 155.398 160.025 155.427C160.009 155.484 159.992 155.542 159.976 155.599C159.943 155.714 159.91 155.83 159.876 155.947C159.807 156.18 159.736 156.416 159.662 156.656C159.514 157.135 159.352 157.632 159.174 158.145C158.821 159.161 158.389 160.292 157.856 161.507C156.843 163.812 155.19 167.049 152.536 170.541C146.855 178.015 134.937 188.219 117.016 188.604L114.87 88.6268C93.7864 89.0795 79.8407 100.928 72.923 110.029C69.6505 114.334 67.577 118.381 66.2982 121.292C65.6319 122.809 65.1054 124.193 64.6918 125.386C64.4833 125.987 64.2989 126.553 64.136 127.079C64.0544 127.342 63.9779 127.597 63.9061 127.842C63.8702 127.965 63.8354 128.085 63.8017 128.204C63.7849 128.263 63.7683 128.321 63.752 128.379C63.7439 128.408 63.7358 128.437 63.7278 128.466C63.7238 128.48 63.7178 128.502 63.7158 128.509C63.7099 128.53 63.704 128.551 111.888 141.904ZM117.017 188.604C108.382 188.789 99.5691 186.519 91.7888 181.764C84.453 177.281 79.8271 171.705 77.0976 167.513C74.3991 163.367 72.9131 159.607 72.0857 157.111C71.6432 155.776 71.3067 154.55 71.0469 153.472C70.9154 152.926 70.7995 152.401 70.6968 151.9C70.6453 151.648 70.5968 151.401 70.551 151.158C70.5281 151.037 70.5059 150.917 70.4843 150.797C70.4735 150.737 70.4628 150.678 70.4523 150.618C70.4471 150.589 70.4419 150.559 70.4367 150.53C70.4341 150.515 70.4302 150.493 70.4289 150.485C70.4251 150.463 70.4213 150.441 119.687 141.904C168.953 133.366 168.949 133.344 168.945 133.322C168.944 133.315 168.94 133.292 168.937 133.277C168.932 133.248 168.927 133.218 168.921 133.188C168.911 133.128 168.9 133.067 168.889 133.005C168.867 132.883 168.844 132.757 168.819 132.63C168.771 132.374 168.719 132.108 168.663 131.832C168.55 131.282 168.418 130.685 168.265 130.048C167.961 128.786 167.554 127.298 167.008 125.649C165.972 122.526 164.143 117.931 160.904 112.955C153.672 101.846 138.232 88.125 114.869 88.6268L117.017 188.604ZM119.687 141.904C72.3049 157.871 72.3118 157.891 72.3188 157.911C72.3211 157.918 72.3281 157.939 72.3328 157.953C72.3422 157.981 72.3517 158.009 72.3614 158.037C72.3808 158.094 72.4007 158.152 72.4211 158.211C72.462 158.33 72.505 158.453 72.5503 158.582C72.6408 158.838 72.7404 159.115 72.8495 159.41C73.0672 159.999 73.3243 160.667 73.6236 161.402C74.2186 162.865 75.0003 164.643 75.9975 166.639C77.9375 170.52 80.981 175.801 85.506 181.304C94.7412 192.536 112.341 206.879 138.83 207.407L140.821 107.427C152.298 107.655 159.829 114.242 162.748 117.792C164.115 119.455 164.938 120.913 165.448 121.932C165.73 122.497 165.994 123.085 166.25 123.714C166.379 124.033 166.512 124.373 166.647 124.739C166.715 124.923 166.784 125.114 166.854 125.313C166.889 125.412 166.925 125.514 166.96 125.618C166.978 125.67 166.996 125.723 167.014 125.776C167.023 125.802 167.033 125.829 167.042 125.856C167.046 125.869 167.053 125.89 167.055 125.896C167.062 125.916 167.069 125.937 119.687 141.904ZM139.825 207.417C166.701 207.417 185.59 193.662 196.147 179.375C200.922 172.914 203.814 166.702 205.543 162.178C206.433 159.849 207.089 157.773 207.568 156.063C207.809 155.202 208.01 154.418 208.177 153.722C208.26 153.374 208.335 153.046 208.403 152.741C208.437 152.588 208.469 152.44 208.499 152.298C208.514 152.227 208.528 152.157 208.543 152.089C208.55 152.055 208.557 152.021 208.564 151.988C208.567 151.971 208.572 151.946 208.574 151.938C208.579 151.913 208.584 151.888 159.591 141.904C110.598 131.919 110.603 131.895 110.608 131.87C110.61 131.862 110.615 131.837 110.618 131.821C110.625 131.789 110.632 131.756 110.638 131.724C110.652 131.659 110.665 131.595 110.679 131.532C110.706 131.405 110.733 131.279 110.76 131.156C110.815 130.909 110.87 130.668 110.926 130.433C111.039 129.965 111.155 129.514 111.278 129.078C111.519 128.216 111.798 127.352 112.132 126.478C112.75 124.862 113.814 122.528 115.723 119.945C117.708 117.259 120.93 113.886 125.732 111.232C130.774 108.445 135.829 107.417 139.825 107.417V207.417ZM159.591 141.904C206.708 158.637 206.701 158.656 206.694 158.676C206.692 158.682 206.685 158.701 206.68 158.714C206.671 158.74 206.662 158.766 206.653 158.792C206.634 158.843 206.615 158.895 206.597 158.947C206.559 159.051 206.521 159.155 206.482 159.26C206.404 159.47 206.324 159.682 206.241 159.897C206.075 160.326 205.897 160.769 205.704 161.225C205.322 162.128 204.866 163.126 204.319 164.194C203.285 166.213 201.631 169.057 199.091 172.128C194.025 178.253 182.241 188.615 163.863 188.615V88.6153C142.381 88.6153 128.461 100.622 122.035 108.391C118.815 112.284 116.676 115.951 115.325 118.586C114.62 119.962 114.048 121.217 113.591 122.3C113.36 122.846 113.153 123.36 112.969 123.837C112.877 124.076 112.789 124.306 112.707 124.528C112.666 124.64 112.626 124.749 112.587 124.856C112.568 124.909 112.549 124.962 112.53 125.014C112.521 125.041 112.511 125.067 112.502 125.093C112.497 125.106 112.49 125.125 112.488 125.132C112.481 125.151 112.474 125.17 159.591 141.904ZM164.781 188.607C156.22 188.764 147.705 186.507 140.271 182.09C133.254 177.921 128.721 172.754 125.99 168.838C123.282 164.955 121.711 161.404 120.805 158.996C120.322 157.714 119.944 156.531 119.645 155.483C119.494 154.953 119.358 154.442 119.236 153.952C119.175 153.706 119.117 153.465 119.062 153.227C119.034 153.108 119.007 152.99 118.981 152.873C118.968 152.814 118.955 152.756 118.942 152.698C118.935 152.669 118.929 152.64 118.922 152.611C118.919 152.596 118.915 152.574 118.913 152.567C118.908 152.545 118.904 152.524 167.763 141.904C216.622 131.284 216.617 131.262 216.612 131.24C216.611 131.233 216.606 131.211 216.603 131.196C216.596 131.167 216.59 131.138 216.583 131.108C216.57 131.049 216.557 130.99 216.544 130.93C216.516 130.809 216.488 130.686 216.459 130.561C216.401 130.311 216.338 130.05 216.271 129.78C216.137 129.241 215.982 128.658 215.805 128.037C215.454 126.806 214.994 125.362 214.394 123.767C213.252 120.734 211.301 116.35 208.015 111.637C200.848 101.36 185.767 88.2049 162.946 88.6237L164.781 188.607Z" fill="black" mask="url(#path-7-inside-1_19_2)"/>
<path d="M99.0303 182.945C99.0303 174.493 105.881 167.643 114.332 167.643V167.643C122.783 167.643 129.634 174.493 129.634 182.944V223.421C129.634 231.872 122.783 238.722 114.332 238.722V238.722C105.881 238.722 99.0303 231.872 99.0303 223.421V182.945Z" fill="#F06200"/>
<path d="M150.366 182.451C150.366 174.272 156.996 167.643 165.174 167.643V167.643C173.352 167.643 179.982 174.272 179.982 182.451V223.914C179.982 232.093 173.352 238.722 165.174 238.722V238.722C156.996 238.722 150.366 232.093 150.366 223.914V182.451Z" fill="#DF5B00"/>
<path d="M124.698 56.5802C124.698 48.1292 131.549 41.2783 140 41.2783V41.2783C148.451 41.2783 155.302 48.1292 155.302 56.5802V98.0435C155.302 106.495 148.451 113.345 140 113.345V113.345C131.549 113.345 124.698 106.495 124.698 98.0435V56.5802Z" fill="#00FF00"/>
<circle cx="140" cy="138.52" r="64.663" transform="rotate(45 140 138.52)" fill="url(#paint1_linear_19_2)"/>
<circle cx="120.255" cy="112.852" r="10.3658" fill="black"/>
<circle cx="159.744" cy="112.852" r="10.3658" fill="black"/>
<mask id="path-15-inside-2_19_2" fill="white">
<path d="M167.763 141.904C167.763 157.333 155.255 165.65 139.825 165.65C124.396 165.65 111.888 157.333 111.888 141.904C111.888 141.904 112.781 138.683 115.943 138.615C119.105 138.547 119.687 141.904 119.687 141.904C119.687 141.904 124.814 157.118 139.825 157.417C156.43 157.417 159.591 141.904 159.591 141.904C159.591 141.904 160.759 138.615 163.863 138.615C167.035 138.557 167.763 141.904 167.763 141.904Z"/>
</mask>
<path d="M167.763 141.904C167.763 157.333 155.255 165.65 139.825 165.65C124.396 165.65 111.888 157.333 111.888 141.904C111.888 141.904 112.781 138.683 115.943 138.615C119.105 138.547 119.687 141.904 119.687 141.904C119.687 141.904 124.814 157.118 139.825 157.417C156.43 157.417 159.591 141.904 159.591 141.904C159.591 141.904 160.759 138.615 163.863 138.615C167.035 138.557 167.763 141.904 167.763 141.904Z" fill="black"/>
<path d="M167.763 141.904H217.763V136.532L216.622 131.284L167.763 141.904ZM111.888 141.904L63.704 128.551L61.8882 135.104V141.904H111.888ZM115.943 138.615L117.016 188.604L117.017 188.604L115.943 138.615ZM119.687 141.904L70.4213 150.441L71.0775 154.228L72.3049 157.871L119.687 141.904ZM139.825 157.417L138.83 207.407L139.327 207.417H139.825V157.417ZM159.591 141.904L112.474 125.17L111.299 128.479L110.598 131.919L159.591 141.904ZM163.863 138.615V188.615H164.322L164.781 188.607L163.863 138.615ZM117.763 141.904C117.763 138.87 118.414 134.82 120.479 130.512C122.541 126.211 125.46 122.806 128.519 120.381C134.324 115.779 139.149 115.65 139.825 115.65V215.65C155.931 215.65 174.725 211.362 190.642 198.744C207.851 185.101 217.763 164.641 217.763 141.904H117.763ZM139.825 115.65C140.502 115.65 145.327 115.779 151.132 120.381C154.191 122.806 157.11 126.211 159.172 130.512C161.237 134.82 161.888 138.87 161.888 141.904H61.8882C61.8882 164.641 71.8001 185.101 89.0093 198.744C104.926 211.362 123.719 215.65 139.825 215.65V115.65ZM111.888 141.904C160.072 155.256 160.066 155.277 160.061 155.299C160.059 155.306 160.053 155.327 160.049 155.341C160.041 155.37 160.033 155.398 160.025 155.427C160.009 155.484 159.992 155.542 159.976 155.599C159.943 155.714 159.91 155.83 159.876 155.947C159.807 156.18 159.736 156.416 159.662 156.656C159.514 157.135 159.352 157.632 159.174 158.145C158.821 159.161 158.389 160.292 157.856 161.507C156.843 163.812 155.19 167.049 152.536 170.541C146.855 178.015 134.937 188.219 117.016 188.604L114.87 88.6268C93.7864 89.0795 79.8407 100.928 72.923 110.029C69.6505 114.334 67.577 118.381 66.2982 121.292C65.6319 122.809 65.1054 124.193 64.6918 125.386C64.4833 125.987 64.2989 126.553 64.136 127.079C64.0544 127.342 63.9779 127.597 63.9061 127.842C63.8702 127.965 63.8354 128.085 63.8017 128.204C63.7849 128.263 63.7683 128.321 63.752 128.379C63.7439 128.408 63.7358 128.437 63.7278 128.466C63.7238 128.48 63.7178 128.502 63.7158 128.509C63.7099 128.53 63.704 128.551 111.888 141.904ZM117.017 188.604C108.382 188.789 99.5691 186.519 91.7888 181.764C84.453 177.281 79.8271 171.705 77.0976 167.513C74.3991 163.367 72.9131 159.607 72.0857 157.111C71.6432 155.776 71.3067 154.55 71.0469 153.472C70.9154 152.926 70.7995 152.401 70.6968 151.9C70.6453 151.648 70.5968 151.401 70.551 151.158C70.5281 151.037 70.5059 150.917 70.4843 150.797C70.4735 150.737 70.4628 150.678 70.4523 150.618C70.4471 150.589 70.4419 150.559 70.4367 150.53C70.4341 150.515 70.4302 150.493 70.4289 150.485C70.4251 150.463 70.4213 150.441 119.687 141.904C168.953 133.366 168.949 133.344 168.945 133.322C168.944 133.315 168.94 133.292 168.937 133.277C168.932 133.248 168.927 133.218 168.921 133.188C168.911 133.128 168.9 133.067 168.889 133.005C168.867 132.883 168.844 132.757 168.819 132.63C168.771 132.374 168.719 132.108 168.663 131.832C168.55 131.282 168.418 130.685 168.265 130.048C167.961 128.786 167.554 127.298 167.008 125.649C165.972 122.526 164.143 117.931 160.904 112.955C153.672 101.846 138.232 88.125 114.869 88.6268L117.017 188.604ZM119.687 141.904C72.3049 157.871 72.3118 157.891 72.3188 157.911C72.3211 157.918 72.3281 157.939 72.3328 157.953C72.3422 157.981 72.3517 158.009 72.3614 158.037C72.3808 158.094 72.4007 158.152 72.4211 158.211C72.462 158.33 72.505 158.453 72.5503 158.582C72.6408 158.838 72.7404 159.115 72.8495 159.41C73.0672 159.999 73.3243 160.667 73.6236 161.402C74.2186 162.865 75.0003 164.643 75.9975 166.639C77.9375 170.52 80.981 175.801 85.506 181.304C94.7412 192.536 112.341 206.879 138.83 207.407L140.821 107.427C152.298 107.655 159.829 114.242 162.748 117.792C164.115 119.455 164.938 120.913 165.448 121.932C165.73 122.497 165.994 123.085 166.25 123.714C166.379 124.033 166.512 124.373 166.647 124.739C166.715 124.923 166.784 125.114 166.854 125.313C166.889 125.412 166.925 125.514 166.96 125.618C166.978 125.67 166.996 125.723 167.014 125.776C167.023 125.802 167.033 125.829 167.042 125.856C167.046 125.869 167.053 125.89 167.055 125.896C167.062 125.916 167.069 125.937 119.687 141.904ZM139.825 207.417C166.701 207.417 185.59 193.662 196.147 179.375C200.922 172.914 203.814 166.702 205.543 162.178C206.433 159.849 207.089 157.773 207.568 156.063C207.809 155.202 208.01 154.418 208.177 153.722C208.26 153.374 208.335 153.046 208.403 152.741C208.437 152.588 208.469 152.44 208.499 152.298C208.514 152.227 208.528 152.157 208.543 152.089C208.55 152.055 208.557 152.021 208.564 151.988C208.567 151.971 208.572 151.946 208.574 151.938C208.579 151.913 208.584 151.888 159.591 141.904C110.598 131.919 110.603 131.895 110.608 131.87C110.61 131.862 110.615 131.837 110.618 131.821C110.625 131.789 110.632 131.756 110.638 131.724C110.652 131.659 110.665 131.595 110.679 131.532C110.706 131.405 110.733 131.279 110.76 131.156C110.815 130.909 110.87 130.668 110.926 130.433C111.039 129.965 111.155 129.514 111.278 129.078C111.519 128.216 111.798 127.352 112.132 126.478C112.75 124.862 113.814 122.528 115.723 119.945C117.708 117.259 120.93 113.886 125.732 111.232C130.774 108.445 135.829 107.417 139.825 107.417V207.417ZM159.591 141.904C206.708 158.637 206.701 158.656 206.694 158.676C206.692 158.682 206.685 158.701 206.68 158.714C206.671 158.74 206.662 158.766 206.653 158.792C206.634 158.843 206.615 158.895 206.597 158.947C206.559 159.051 206.521 159.155 206.482 159.26C206.404 159.47 206.324 159.682 206.241 159.897C206.075 160.326 205.897 160.769 205.704 161.225C205.322 162.128 204.866 163.126 204.319 164.194C203.285 166.213 201.631 169.057 199.091 172.128C194.025 178.253 182.241 188.615 163.863 188.615V88.6153C142.381 88.6153 128.461 100.622 122.035 108.391C118.815 112.284 116.676 115.951 115.325 118.586C114.62 119.962 114.048 121.217 113.591 122.3C113.36 122.846 113.153 123.36 112.969 123.837C112.877 124.076 112.789 124.306 112.707 124.528C112.666 124.64 112.626 124.749 112.587 124.856C112.568 124.909 112.549 124.962 112.53 125.014C112.521 125.041 112.511 125.067 112.502 125.093C112.497 125.106 112.49 125.125 112.488 125.132C112.481 125.151 112.474 125.17 159.591 141.904ZM164.781 188.607C156.22 188.764 147.705 186.507 140.271 182.09C133.254 177.921 128.721 172.754 125.99 168.838C123.282 164.955 121.711 161.404 120.805 158.996C120.322 157.714 119.944 156.531 119.645 155.483C119.494 154.953 119.358 154.442 119.236 153.952C119.175 153.706 119.117 153.465 119.062 153.227C119.034 153.108 119.007 152.99 118.981 152.873C118.968 152.814 118.955 152.756 118.942 152.698C118.935 152.669 118.929 152.64 118.922 152.611C118.919 152.596 118.915 152.574 118.913 152.567C118.908 152.545 118.904 152.524 167.763 141.904C216.622 131.284 216.617 131.262 216.612 131.24C216.611 131.233 216.606 131.211 216.603 131.196C216.596 131.167 216.59 131.138 216.583 131.108C216.57 131.049 216.557 130.99 216.544 130.93C216.516 130.809 216.488 130.686 216.459 130.561C216.401 130.311 216.338 130.05 216.271 129.78C216.137 129.241 215.982 128.658 215.805 128.037C215.454 126.806 214.994 125.362 214.394 123.767C213.252 120.734 211.301 116.35 208.015 111.637C200.848 101.36 185.767 88.2049 162.946 88.6237L164.781 188.607Z" fill="black" mask="url(#path-15-inside-2_19_2)"/>
<path d="M199.5 27C209.165 27 217 34.835 217 44.5C217 47.1192 216.841 49.1182 215.261 52.114C213.682 55.1098 209.893 55.5868 207.331 62.3408C207.024 63.1514 206.744 64.0885 206.416 65.369L192.047 65.3154C191.864 64.3314 191.412 63.1533 191.135 62.3408C188.755 55.3591 184.544 53.7184 183.33 51.203C182.115 48.6875 182 46.9839 182 44.5C182 34.835 189.835 27 199.5 27Z" fill="#EFFF00"/>
<path d="M192 65H206.5V75C206.5 77.2091 204.709 79 202.5 79H196C193.791 79 192 77.2091 192 75V65Z" fill="#BCBCBC"/>
<defs>
<linearGradient id="paint0_linear_19_2" x1="107.668" y1="106.188" x2="107.668" y2="106.188" gradientUnits="userSpaceOnUse">
<stop stop-color="#FE7B21"/>
<stop offset="0.415538" stop-color="#FF6800"/>
<stop offset="0.59408" stop-color="#FF6800"/>
<stop offset="1" stop-color="#C25204"/>
</linearGradient>
<linearGradient id="paint1_linear_19_2" x1="53.3036" y1="63.5433" x2="53.3036" y2="63.5433" gradientUnits="userSpaceOnUse">
<stop stop-color="#FE7B21"/>
<stop offset="0.415538" stop-color="#FF6800"/>
<stop offset="0.59408" stop-color="#FF6800"/>
<stop offset="1" stop-color="#C25204"/>
</linearGradient>
</defs>
</svg>
